<svg width="486" height="500" viewBox="0 0 486 500" fill="none" xmlns="http://www.w3.org/2000/svg">
<g clip-path="url(#clip0_0_1008)">
<path d="M126.203 103.241H357.553C358.744 103.241 359.716 104.211 359.716 105.406V281.322L460.968 377.54C462.222 371.057 462.93 364.38 462.93 357.537V105.406C462.93 47.341 415.657 0.103195 357.553 0.103195H105.234C97.0213 0.103195 89.0619 1.14073 81.3854 2.92508L126.203 103.241Z" fill="#25043E" fill-opacity="0.39"/>
<path d="M485.704 500.221L360.259 309.255H247.936V359.702H105.234C104.038 359.702 103.067 358.731 103.067 357.537V153.967L-0.148071 127.191V357.537C-0.148071 415.602 47.1251 462.84 105.234 462.84L348.912 462.84L373.469 500.221H485.704Z" fill="#25043E" fill-opacity="0.39"/>
</g>
<defs>
<clipPath id="clip0_0_1008">
<rect width="486" height="500" fill="white"/>
</clipPath>
</defs>
</svg>
